<?xml version="1.0" encoding="UTF-8" standalone="no"?>
<svg width="74px" height="82px" viewBox="0 0 74 82" version="1.1" xmlns="http://www.w3.org/2000/svg" xmlns:xlink="http://www.w3.org/1999/xlink">
    <!-- Generator: Sketch 3.8.3 (29802) - http://www.bohemiancoding.com/sketch -->
    <title>_x31_</title>
    <desc>Created with Sketch.</desc>
    <defs></defs>
    <g id="Page-1" stroke="none" stroke-width="1" fill="none" fill-rule="evenodd">
        <g id="Food-Icons" transform="translate(-6.000000, -3.000000)">
            <g id="_x31_" transform="translate(6.000000, 3.000000)">
                <path d="M71.734,64.412 L71.734,67.017 C71.734,67.86 71.054,68.54 70.221,68.54 L3.65,68.54 C2.809,68.54 2.127,67.858 2.127,67.017 L2.127,64.411 C2.127,63.578 2.807,62.898 3.65,62.898 L70.221,62.898 C71.053,62.898 71.734,63.579 71.734,64.412 L71.734,64.412 Z" id="Shape" fill="#B9DA95"></path>
                <path d="M70.221,70.479 L3.65,70.479 C1.741,70.479 0.188,68.926 0.188,67.017 L0.188,64.412 C0.188,62.508 1.741,60.96 3.65,60.96 L70.221,60.96 C72.125,60.96 73.673,62.509 73.673,64.412 L73.673,67.017 C73.673,68.926 72.124,70.479 70.221,70.479 L70.221,70.479 Z M4.066,66.602 L69.796,66.602 L69.796,64.837 L4.066,64.837 L4.066,66.602 L4.066,66.602 Z" id="Shape" fill="#000000"></path>
                <path d="M71.673,30.778 L71.673,33.383 C71.673,34.226 70.993,34.906 70.16,34.906 L3.589,34.906 C2.748,34.906 2.066,34.224 2.066,33.383 L2.066,30.777 C2.066,29.944 2.746,29.264 3.589,29.264 L70.16,29.264 C70.992,29.265 71.673,29.946 71.673,30.778 L71.673,30.778 Z" id="Shape" fill="#F47A59"></path>
                <path d="M67.141,30.778 L67.141,33.383 C67.141,34.226 66.461,34.906 65.628,34.906 L8.12,34.906 C7.279,34.906 6.597,34.224 6.597,33.383 L6.597,30.777 C6.597,29.944 7.277,29.264 8.12,29.264 L65.628,29.264 C66.46,29.265 67.141,29.946 67.141,30.778 L67.141,30.778 Z" id="Shape" fill="#F47A59"></path>
                <path d="M70.159,36.845 L3.588,36.845 C1.68,36.845 0.127,35.292 0.127,33.384 L0.127,30.778 C0.127,28.874 1.68,27.326 3.588,27.326 L70.159,27.326 C72.063,27.326 73.611,28.875 73.611,30.778 L73.611,33.384 C73.611,35.292 72.063,36.845 70.159,36.845 L70.159,36.845 Z M4.004,32.968 L69.733,32.968 L69.733,31.203 L4.004,31.203 L4.004,32.968 L4.004,32.968 Z" id="Shape" fill="#000000"></path>
                <path d="M7.81,34.907 L65.927,34.907 C68.57,34.907 70.712,37.05 70.712,39.692 L70.712,41.296 C70.712,43.939 68.569,46.081 65.927,46.081 L7.81,46.081 C5.167,46.081 3.025,43.938 3.025,41.296 L3.025,39.692 C3.025,37.049 5.168,34.907 7.81,34.907 L7.81,34.907 Z" id="Shape" fill="#A56452"></path>
                <path d="M17.098,34.906 L56.764,34.906 C59.407,34.906 61.549,37.049 61.549,39.691 L61.549,41.295 C61.549,43.938 59.406,46.08 56.764,46.08 L17.098,46.08 C14.455,46.08 12.313,43.937 12.313,41.295 L12.313,39.691 C12.312,37.049 14.455,34.906 17.098,34.906 L17.098,34.906 Z" id="Shape" fill="#B2705B"></path>
                <path d="M65.412,48.02 L8.327,48.02 C4.334,48.02 1.087,44.772 1.087,40.78 L1.087,40.208 C1.087,36.215 4.335,32.968 8.327,32.968 L65.412,32.968 C69.404,32.968 72.652,36.216 72.652,40.208 L72.652,40.78 C72.652,44.773 69.404,48.02 65.412,48.02 L65.412,48.02 Z M8.327,36.845 C6.473,36.845 4.964,38.354 4.964,40.208 L4.964,40.78 C4.964,42.634 6.473,44.143 8.327,44.143 L65.412,44.143 C67.266,44.143 68.774,42.634 68.774,40.78 L68.774,40.208 C68.774,38.354 67.266,36.845 65.412,36.845 L8.327,36.845 L8.327,36.845 Z" id="Shape" fill="#000000"></path>
                <path d="M64.078,79.715 L9.784,79.715 C7.276,79.715 5.242,77.682 5.242,75.173 L5.242,70.852 C5.242,69.575 6.277,68.54 7.554,68.54 L66.307,68.54 C67.584,68.54 68.619,69.575 68.619,70.852 L68.619,75.173 C68.62,77.682 66.586,79.715 64.078,79.715 L64.078,79.715 Z" id="Shape" fill="#F1BA7B"></path>
                <path d="M56.831,79.376 L16.906,79.376 C14.398,79.376 12.364,77.343 12.364,74.834 L12.364,71.192 C12.364,69.915 13.399,68.88 14.676,68.88 L59.059,68.88 C60.336,68.88 61.371,69.915 61.371,71.192 L61.371,74.834 C61.373,77.342 59.34,79.376 56.831,79.376 L56.831,79.376 Z" id="Shape" fill="#FDC784"></path>
                <path d="M63.588,81.654 L10.273,81.654 C6.43,81.654 3.302,78.527 3.302,74.684 L3.302,71.102 C3.302,68.62 5.321,66.601 7.803,66.601 L66.057,66.601 C68.539,66.601 70.558,68.62 70.558,71.102 L70.558,74.684 C70.558,78.527 67.432,81.654 63.588,81.654 L63.588,81.654 Z M7.803,70.479 C7.459,70.479 7.18,70.759 7.18,71.102 L7.18,74.684 C7.18,76.389 8.568,77.777 10.273,77.777 L63.588,77.777 C65.293,77.777 66.681,76.39 66.681,74.684 L66.681,71.102 C66.681,70.758 66.401,70.479 66.058,70.479 L7.803,70.479 L7.803,70.479 Z" id="Shape" fill="#000000"></path>
                <path d="M26.451,2.285 L47.409,2.285 C59.123,2.285 68.619,11.781 68.619,23.495 L68.619,27.368 C68.619,28.416 67.77,29.265 66.722,29.265 L7.138,29.265 C6.09,29.265 5.241,28.416 5.241,27.368 L5.241,23.495 C5.242,11.781 14.738,2.285 26.451,2.285 L26.451,2.285 Z" id="Shape" fill="#F1BA7B"></path>
                <path d="M36.96,6.894 L36.778,6.894 C49.755,6.894 60.275,12.805 60.275,25.782 L60.275,27.163 C60.275,28.324 59.334,29.265 58.173,29.265 L15.565,29.265 C14.404,29.265 13.463,28.324 13.463,27.163 L13.463,25.782 C13.463,12.805 23.983,6.894 36.96,6.894 L36.96,6.894 Z" id="Shape" fill="#FDC784"></path>
                <path d="M66.518,31.203 L7.343,31.203 C5.115,31.203 3.303,29.39 3.303,27.163 L3.303,25.783 C3.303,11.758 14.714,0.347 28.739,0.347 L45.122,0.347 C59.147,0.347 70.558,11.758 70.558,25.783 L70.558,27.163 C70.558,29.39 68.746,31.203 66.518,31.203 L66.518,31.203 Z M28.739,4.224 C16.851,4.224 7.18,13.895 7.18,25.783 L7.18,27.163 C7.18,27.253 7.253,27.326 7.343,27.326 L66.518,27.326 C66.608,27.326 66.681,27.253 66.681,27.163 L66.681,25.783 C66.681,13.895 57.01,4.224 45.122,4.224 L28.739,4.224 L28.739,4.224 Z" id="Shape" fill="#000000"></path>
                <path d="M70.71,57.068 L70.71,57.547 C70.71,60.499 68.317,62.892 65.365,62.892 L59.312,62.892 C58.443,62.892 57.629,63.257 56.997,63.854 C56.318,64.497 55.397,64.894 54.388,64.894 C52.942,64.894 51.687,64.08 51.045,62.892 C50.758,62.356 50.595,61.743 50.595,61.101 L50.595,64.693 C50.595,66.779 48.888,68.486 46.802,68.486 L46.802,68.486 C44.712,68.486 43.018,66.792 43.018,64.702 L43.018,64.702 C43.018,63.702 42.207,62.892 41.208,62.892 L8.373,62.892 C5.421,62.892 3.028,60.499 3.028,57.547 L3.028,57.068 C3.028,54.116 5.421,51.723 8.373,51.723 L65.365,51.723 C68.317,51.723 70.71,54.116 70.71,57.068 L70.71,57.068 Z" id="Shape" fill="#A56452"></path>
                <path d="M58.146,19.53 C57.649,19.53 57.153,19.341 56.775,18.962 L55.578,17.764 C54.821,17.007 54.821,15.779 55.579,15.022 C56.337,14.266 57.565,14.266 58.321,15.023 L59.518,16.221 C60.275,16.978 60.275,18.206 59.517,18.963 C59.139,19.34 58.643,19.53 58.146,19.53 L58.146,19.53 Z" id="Shape" fill="#FFF2BC"></path>
                <path d="M15.711,19.53 C15.215,19.53 14.719,19.341 14.34,18.962 C13.583,18.205 13.583,16.977 14.34,16.221 L15.538,15.023 C16.295,14.266 17.522,14.266 18.279,15.023 C19.036,15.78 19.036,17.008 18.279,17.764 L17.081,18.962 C16.704,19.34 16.208,19.53 15.711,19.53 L15.711,19.53 Z" id="Shape" fill="#FFF2BC"></path>
                <path d="M37.529,12.746 C37.032,12.746 36.536,12.557 36.158,12.178 L34.961,10.98 C34.204,10.223 34.204,8.995 34.962,8.238 C35.72,7.482 36.947,7.482 37.704,8.239 L38.901,9.437 C39.658,10.194 39.658,11.422 38.9,12.179 C38.521,12.557 38.025,12.746 37.529,12.746 L37.529,12.746 Z" id="Shape" fill="#FFF2BC"></path>
                <path d="M45.598,24.477 C45.102,24.477 44.606,24.288 44.227,23.909 C43.47,23.152 43.47,21.924 44.227,21.168 L45.424,19.971 C46.181,19.214 47.408,19.214 48.165,19.971 C48.922,20.728 48.922,21.956 48.165,22.712 L46.968,23.909 C46.59,24.288 46.094,24.477 45.598,24.477 L45.598,24.477 Z" id="Shape" fill="#FFF2BC"></path>
                <path d="M28.26,24.477 C27.764,24.477 27.268,24.288 26.889,23.909 L25.692,22.712 C24.935,21.955 24.935,20.727 25.692,19.971 C26.449,19.214 27.676,19.214 28.433,19.971 L29.63,21.168 C30.387,21.925 30.387,23.153 29.63,23.909 C29.252,24.288 28.756,24.477 28.26,24.477 L28.26,24.477 Z" id="Shape" fill="#FFF2BC"></path>
                <path d="M24.908,48.02 C24.412,48.02 23.916,47.831 23.537,47.452 C22.78,46.695 22.78,45.467 23.537,44.711 L26.251,41.997 C27.008,41.24 28.235,41.24 28.992,41.997 C29.749,42.754 29.749,43.982 28.992,44.738 L26.278,47.452 C25.9,47.831 25.404,48.02 24.908,48.02 L24.908,48.02 Z" id="Shape" fill="#000000"></path>
                <path d="M46.117,48.02 C45.621,48.02 45.125,47.831 44.746,47.452 C43.989,46.695 43.989,45.467 44.746,44.711 L47.46,41.997 C48.217,41.24 49.444,41.24 50.201,41.997 C50.958,42.754 50.958,43.982 50.201,44.738 L47.487,47.452 C47.109,47.831 46.613,48.02 46.117,48.02 L46.117,48.02 Z" id="Shape" fill="#000000"></path>
                <path d="M17.017,39.559 C16.521,39.559 16.025,39.37 15.646,38.991 L12.932,36.277 C12.175,35.52 12.175,34.292 12.932,33.536 C13.689,32.779 14.916,32.779 15.673,33.536 L18.387,36.25 C19.144,37.007 19.144,38.235 18.387,38.991 C18.009,39.37 17.513,39.559 17.017,39.559 L17.017,39.559 Z" id="Shape" fill="#000000"></path>
                <path d="M38.226,39.559 C37.73,39.559 37.234,39.37 36.855,38.991 L34.141,36.277 C33.384,35.52 33.384,34.292 34.141,33.536 C34.898,32.779 36.125,32.779 36.882,33.536 L39.596,36.25 C40.353,37.007 40.353,38.235 39.596,38.991 C39.218,39.37 38.722,39.559 38.226,39.559 L38.226,39.559 Z" id="Shape" fill="#000000"></path>
                <path d="M59.435,39.559 C58.939,39.559 58.443,39.37 58.064,38.991 L55.35,36.277 C54.593,35.52 54.593,34.292 55.35,33.536 C56.107,32.779 57.334,32.779 58.091,33.536 L60.805,36.25 C61.562,37.007 61.562,38.235 60.805,38.991 C60.427,39.37 59.931,39.559 59.435,39.559 L59.435,39.559 Z" id="Shape" fill="#000000"></path>
                <path d="M46.117,56.376 C45.621,56.376 45.125,56.187 44.746,55.808 C43.989,55.051 43.989,53.823 44.746,53.067 L47.46,50.353 C48.217,49.596 49.444,49.596 50.201,50.353 C50.958,51.11 50.958,52.338 50.201,53.094 L47.487,55.808 C47.109,56.187 46.613,56.376 46.117,56.376 L46.117,56.376 Z" id="Shape" fill="#000000"></path>
                <path d="M17.552,51.723 L56.186,51.723 C59.114,51.723 61.488,54.097 61.488,57.025 L61.488,57.597 C61.488,60.525 59.114,62.898 56.186,62.898 L50.595,62.898 L50.641,64.369 C50.711,66.626 48.909,68.498 46.651,68.513 L46.651,68.513 C44.405,68.528 42.583,66.7 42.606,64.454 L42.621,62.898 L17.553,62.898 C14.625,62.898 12.251,60.524 12.251,57.597 L12.251,57.025 C12.25,54.097 14.624,51.723 17.552,51.723 L17.552,51.723 Z" id="Shape" fill="#B2705B"></path>
                <path d="M38.226,64.837 C37.73,64.837 37.234,64.648 36.855,64.269 L34.141,61.555 C33.384,60.798 33.384,59.57 34.141,58.814 C34.898,58.057 36.125,58.057 36.882,58.814 L39.596,61.528 C40.353,62.285 40.353,63.513 39.596,64.269 C39.218,64.648 38.722,64.837 38.226,64.837 L38.226,64.837 Z" id="Shape" fill="#000000"></path>
                <path d="M17.017,64.837 C16.521,64.837 16.025,64.648 15.646,64.269 L12.932,61.555 C12.175,60.798 12.175,59.57 12.932,58.814 C13.689,58.057 14.916,58.057 15.673,58.814 L18.387,61.528 C19.144,62.285 19.144,63.513 18.387,64.269 C18.009,64.648 17.513,64.837 17.017,64.837 L17.017,64.837 Z" id="Shape" fill="#000000"></path>
                <path d="M46.802,70.424 C43.689,70.424 41.15,67.926 41.082,64.83 L8.374,64.83 C4.358,64.83 1.09,61.563 1.09,57.546 L1.09,57.067 C1.09,53.051 4.357,49.784 8.374,49.784 L65.366,49.784 C69.382,49.784 72.649,53.051 72.649,57.067 L72.649,57.546 C72.649,61.562 69.382,64.829 65.366,64.829 L59.312,64.829 C58.973,64.829 58.624,64.982 58.331,65.26 C57.26,66.274 55.861,66.831 54.388,66.831 C53.649,66.831 52.93,66.689 52.266,66.423 C51.53,68.741 49.359,70.424 46.802,70.424 L46.802,70.424 Z M8.373,53.662 C6.495,53.662 4.967,55.19 4.967,57.068 L4.967,57.547 C4.967,59.425 6.495,60.953 8.373,60.953 L41.208,60.953 C43.275,60.953 44.957,62.635 44.957,64.702 C44.957,65.719 45.785,66.547 46.802,66.547 C47.824,66.547 48.656,65.715 48.656,64.693 L48.656,61.101 C48.656,60.03 49.524,59.162 50.595,59.162 C51.666,59.162 52.534,60.03 52.534,61.101 C52.534,61.404 52.61,61.707 52.754,61.975 C53.308,63.001 54.823,63.244 55.665,62.446 C56.681,61.484 57.976,60.953 59.312,60.953 L65.366,60.953 C67.244,60.953 68.772,59.425 68.772,57.547 L68.772,57.068 C68.772,55.19 67.244,53.662 65.366,53.662 L8.373,53.662 L8.373,53.662 Z" id="Shape" fill="#000000"></path>
                <path d="M71.673,47.595 L71.673,50.2 C71.673,51.043 70.993,51.723 70.16,51.723 L29.73,51.723 C27.988,51.723 26.317,52.415 25.085,53.647 L23.482,55.25 C22.404,56.328 20.656,56.329 19.576,55.252 L17.964,53.643 C16.732,52.414 15.063,51.723 13.323,51.723 L3.588,51.723 C2.747,51.723 2.065,51.041 2.065,50.2 L2.065,47.594 C2.065,46.761 2.745,46.081 3.588,46.081 L70.159,46.081 C70.992,46.081 71.673,46.762 71.673,47.595 L71.673,47.595 Z" id="Shape" fill="#FFD074"></path>
                <path d="M21.527,57.996 C20.325,57.996 19.121,57.539 18.206,56.624 L16.595,55.015 C15.721,54.142 14.559,53.662 13.324,53.662 L3.589,53.662 C1.681,53.662 0.128,52.109 0.128,50.2 L0.128,47.594 C0.128,45.691 1.681,44.142 3.589,44.142 L70.16,44.142 C72.064,44.142 73.612,45.691 73.612,47.594 L73.612,50.199 C73.612,52.108 72.063,53.661 70.16,53.661 L29.73,53.661 C28.493,53.661 27.33,54.142 26.456,55.017 L24.853,56.62 C23.935,57.538 22.731,57.996 21.527,57.996 L21.527,57.996 Z M4.004,49.785 L13.323,49.785 C15.593,49.785 17.727,50.668 19.333,52.272 L20.944,53.881 C21.266,54.203 21.789,54.201 22.109,53.88 L23.712,52.277 C25.319,50.67 27.455,49.785 29.727,49.785 L69.732,49.785 L69.732,48.02 L4.003,48.02 L4.003,49.785 L4.004,49.785 Z" id="Shape" fill="#000000"></path>
            </g>
        </g>
    </g>
</svg>